<svg xmlns="http://www.w3.org/2000/svg" height="48mm" width="48mm" version="1.1" viewBox="0 0 48.000172 48.000164"><g transform="translate(0 -249)"><path d="m90.709 941.1a90.709 90.709 0 0 0 -90.709 90.7 90.709 90.709 0 0 0 90.709 90.709 90.709 90.709 0 0 0 90.709 -90.709 90.709 90.709 0 0 0 -90.709 -90.709zm-0.14062 43.59a11.813 11.834 0 0 1 11.813 11.834 11.813 11.834 0 0 1 -11.813 11.834 11.813 11.834 0 0 1 -11.812 -11.834 11.813 11.834 0 0 1 11.812 -11.834zm-9.16 27.81h18.248v69.512h-18.248z" transform="scale(.26458)"/></g></svg>
