<svg xmlns="http://www.w3.org/2000/svg" height="48" width="48" version="1.1" viewBox="0 0 12.7 12.7"><g transform="translate(0 -284.3)"><path d="m23.26 0.10547l-0.213 0.00781-1.27 0.11914 0.354 3.9414 1.158-0.1035 2.356 0.0527h0.015 0.096l0.014-0.8789 0.392-3.0566-0.119-0.01562-0.213-0.01368-2.57-0.05273zm-16.719 7.3535l-0.5762 0.5976-0.1777 0.2071-1.5566 2.1323-0.0743 0.104-0.2656 0.414 3.3438 2.141 0.25-0.399 0.0156-0.023 1.418-1.926 0.4726-0.488-2.8496-2.76zm34.893 0.0078l-3.026 2.5602 1.248 1.469 0.996 1.506 3.299-2.199-1.055-1.5882-0.132-0.1836-1.33-1.5644zm2.546 18.844l-0.412 2.408-0.361 1.181 3.785 1.174 0.401-1.293 0.058-0.25 0.436-2.554 0.029-0.274v-0.023l-2.162-0.067-1.774-0.302zm-39.728 0.437l-3.9043 0.686 0.28707 1.654 0.04492 0.213 0.63481 2.193 3.8085-1.107-0.5976-2.053-0.2734-1.586zm30.133 14.246l-0.524 0.34-2.103 1.078-0.51 0.192 1.402 3.707 0.627-0.237 0.207-0.09 2.282-1.166 0.183-0.111 0.606-0.398-2.17-3.315zm-20.625 0.332l-1.787 3.537 2.127 1.078 0.25 0.11 1.492 0.51 1.291-3.75-1.35-0.457-2.023-1.028z" fill-opacity=".99543" transform="matrix(.26458 0 0 .26458 0 284.3)"/><path d="m13.578 13.131l-1.348 1.476 5.243 4.784a8 8 0 0 0 -1.473 4.609 8 8 0 0 0 8 8 8 8 0 0 0 8 -8 8 8 0 0 0 -0.387 -2.447l10.321-4.793-0.842-1.815-10.328 4.797a8 8 0 0 0 -6.764 -3.742 8 8 0 0 0 -5.186 1.91l-5.236-4.779zm7.422 6.869l7 4-7 4v-8z" transform="matrix(.26458 0 0 .26458 0 284.3)"/><path d="m3.4033 287.25z" stroke="#000" stroke-width=".26458px" fill="none"/></g></svg>
